<?xml version="1.0" encoding="UTF-8" standalone="no"?>
<svg
   xmlns="http://www.w3.org/2000/svg"
   version="1.1"
   width="512"
   viewBox="0 0 24 24"
   height="512"
   enable-background="new 0 0 24 24"
   id="Bold">
  <path
     id="path4"
     transform="scale(0.046875)"
     d="M 256 21.333984 C 114.624 21.333984 0 111.10437 0 221.8457 C 0 293.44037 47.914667 356.26666 120 391.72266 C 92.288 486.65599 91.562526 487.08198 96.255859 489.83398 C 102.14386 493.26865 109.78173 489.72722 210.53906 419.19922 C 225.30173 421.26855 240.49067 422.35742 256 422.35742 C 397.376 422.35742 512 332.58704 512 221.8457 C 512 111.10437 397.376 21.333984 256 21.333984 z M 179.99805 199.9668 A 26.033897 26.033897 0 0 1 206.0332 225.99805 A 26.033897 26.033897 0 0 1 179.99805 252.0332 A 26.033897 26.033897 0 0 1 153.9668 225.99805 A 26.033897 26.033897 0 0 1 179.99805 199.9668 z M 255.99805 199.9668 A 26.033897 26.033897 0 0 1 282.0332 225.99805 A 26.033897 26.033897 0 0 1 255.99805 252.0332 A 26.033897 26.033897 0 0 1 229.9668 225.99805 A 26.033897 26.033897 0 0 1 255.99805 199.9668 z M 331.99805 199.9668 A 26.033897 26.033897 0 0 1 358.0332 225.99805 A 26.033897 26.033897 0 0 1 331.99805 252.0332 A 26.033897 26.033897 0 0 1 305.9668 225.99805 A 26.033897 26.033897 0 0 1 331.99805 199.9668 z "
     style="fill:#fff;fill-opacity:1;stroke-width:21.33333397" />
</svg>
