<?xml version="1.0" encoding="UTF-8" standalone="no"?>
<svg
   xmlns="http://www.w3.org/2000/svg"
   version="1.1"
   width="512"
   viewBox="0 0 24 24"
   height="512"
   enable-background="new 0 0 24 24"
   id="Bold">
  <path fill="#fff"
     style="stroke-width:1.94966805"
     id="path2"
     d="m 22.642366,16.567183 v 0 c -4.287321,-2.136836 -4.753291,-2.275262 -5.306998,-1.444705 -0.384084,0.575154 -1.503194,1.879481 -1.840486,2.265516 -0.341192,0.380185 -0.680435,0.409429 -1.259485,0.146225 C 13.650496,17.241769 11.772966,16.627622 9.5503433,14.638961 7.8190379,13.088976 6.6570357,11.188049 6.3138941,10.603149 5.7426413,9.6166162 6.937788,9.4762397 8.0257027,7.4173909 8.2206695,7.0079601 8.1212365,6.6862655 7.976961,6.3957639 7.8307359,6.1033137 6.666784,3.2373018 6.179367,2.0947964 5.7114466,0.95619007 5.2298785,1.1004655 4.8691899,1.1004655 3.7724685,1.0949877 2.9253708,1.0185795 2.2020439,1.7711514 -0.94472049,5.2298627 -0.15120555,8.7977559 2.5412862,12.59181 c 5.2913994,6.925221 8.1106198,8.200304 13.2655428,9.970603 1.392063,0.442573 2.661297,0.380185 3.665375,0.23591 1.119112,-0.17742 3.445064,-1.405711 3.930532,-2.780228 0.497165,-1.374515 0.497165,-2.515072 0.35094,-2.778277 -0.144275,-0.263205 -0.52641,-0.40943 -1.11131,-0.672635 z" />
</svg>
